<svg width="128" height="133" viewBox="0 0 128 133" fill="none" xmlns="http://www.w3.org/2000/svg">
<path d="M80.4337 10.7189L58.9651 0.469513L6.09013e-05 121.559L21.5264 114.004L33.2436 109.655L80.4337 10.7189Z" fill="#236EBE"/>
<path d="M26.1269 112.359L90.7972 88.4368L62.0341 74.559L18.1491 90.7925L26.1269 112.359Z" fill="#236EBE"/>
<path d="M33.24 109.66L26.34 121.469H0L33.24 109.66Z" fill="#144786"/>
<path d="M66.723 39.4695L85.31 0.469482H58.97L66.723 39.4695Z" fill="#398BDC"/>
<path d="M81 67.4695L87.5 4.96948L85.3 0.469482L66.72 39.4695L81 67.4695Z" fill="#3B3F48"/>
<path d="M87.5 4.96948L115.5 54.4695L81 67.4695L87.5 4.96948Z" fill="#5C6067"/>
<path d="M80.4337 10.7189L58.9651 0.469513L6.09013e-05 121.559L21.5264 114.004L33.2436 109.655L80.4337 10.7189Z" fill="#236EBE"/>
<path d="M26.1269 112.359L90.7972 88.4368L62.0341 74.559L18.1491 90.7925L26.1269 112.359Z" fill="#236EBE"/>
<path d="M66.723 39.4695L85.31 0.469482H58.97L66.723 39.4695Z" fill="#236EBE"/>
<path d="M81 67.4695L87.5 4.96948L85.3 0.469482L66.72 39.4695L81 67.4695Z" fill="#144786"/>
<path d="M87.5 4.96948L115.5 54.4695L81 67.4695L87.5 4.96948Z" fill="#144786"/>
<path d="M107.5 121.5L127.7 78.9695L125.7 75.4695L90.8 88.4395L107.5 121.5Z" fill="#144786"/>
</svg>
