<?xml version="1.0" encoding="utf-8"?>
<svg version="1.1" id="Layer_1" xmlns="http://www.w3.org/2000/svg"
     x="0px" y="0px" viewBox="0 0 107.01 122.88"
     style="enable-background:new 0 0 107.01 122.88" xml:space="preserve">
    <g>
        <path
            d="M107.01,20.54h-3.62v3.08c0,2.93-1.19,5.58-3.12,7.51c-1.93,1.92-4.58,3.12-7.51,3.12H22.71c-2.93,0-5.58-1.19-7.51-3.12 c-1.93-1.93-3.12-4.58-3.12-7.51V20.1h-1.45c-1.54,0-2.94,0.63-3.96,1.65c-1.02,1.02-1.65,2.42-1.65,3.96v16.24 c0,1.54,0.63,2.94,1.65,3.96c1.02,1.02,2.42,1.65,3.96,1.65h28.31c1.23,0,1.66-0.01,2.08-0.01c4.87-0.08,10.31-0.17,14.56,2.91 c1.46,1.05,2.62,2.39,3.46,4.04c0.81,1.58,1.3,3.44,1.46,5.59c0,0.06,0.01,0.12,0.01,0.18h0v8.21h4.29c1.88,0,3.59,0.77,4.82,2 c1.24,1.24,2,2.94,2,4.82v40.76c0,1.88-0.77,3.59-2,4.82c-1.24,1.24-2.94,2-4.82,2H51.46c-1.88,0-3.59-0.77-4.82-2 c-1.24-1.24-2-2.94-2-4.82V75.3c0-1.88,0.77-3.59,2-4.82c1.24-1.24,2.94-2,4.82-2h4.03v-8.16c-0.11-1.4-0.43-2.57-0.92-3.54 c-0.47-0.93-1.12-1.67-1.93-2.26c-2.91-2.11-7.47-2.04-11.54-1.97c-1.02,0.02-2.02,0.03-2.16,0.03H10.63 c-2.93,0-5.58-1.19-7.51-3.12C1.19,47.53,0,44.87,0,41.95V25.71c0-2.93,1.2-5.58,3.12-7.51c1.93-1.92,4.58-3.12,7.51-3.12h1.45 v-4.45c0-2.93,1.19-5.58,3.12-7.51C17.13,1.19,19.78,0,22.71,0h70.05c2.93,0,5.58,1.19,7.51,3.12c1.93,1.92,3.12,4.58,3.12,7.51 v4.89h3.62V20.54L107.01,20.54z M92.76,5.01H22.71c-1.54,0-2.94,0.63-3.96,1.65c-1.02,1.02-1.65,2.42-1.65,3.96v12.99 c0,1.54,0.63,2.94,1.65,3.96c1.02,1.02,2.42,1.65,3.96,1.65h70.05c1.54,0,2.94-0.63,3.96-1.65c1.02-1.02,1.65-2.42,1.65-3.96V10.63 c0-1.54-0.63-2.94-1.65-3.96C95.7,5.65,94.3,5.01,92.76,5.01L92.76,5.01z M64.79,73.49H51.46c-0.49,0-0.95,0.2-1.28,0.53 c-0.33,0.33-0.53,0.78-0.53,1.28v40.76c0,0.49,0.2,0.95,0.53,1.28c0.33,0.33,0.78,0.53,1.28,0.53h13.33c0.49,0,0.95-0.2,1.28-0.53 c0.33-0.33,0.53-0.78,0.53-1.28V75.3c0-0.49-0.2-0.95-0.53-1.28C65.74,73.69,65.28,73.49,64.79,73.49L64.79,73.49z" />
    </g>
</svg>